PathFileType	4	(X/Y/Z)	C:/Users/beibeiliu/ov580/test_trc/User3\sequence.32_training_dense_left.trc
DataRate	CameraRate	NumFrames	NumMarkers	Units	OrigDataRate	OrigDataStartFrame	OrigNumFrames
120	120	23	19	mm	120	79	209
Frame#	Time	ThumbCMC			ThumbMCP			ThumbIP			ThumbTip			IndexMCP			IndexPIP			IndexTip			MiddleMCP			MiddlePIP			MiddleTip			RingMCP			RingPIP			RingTip			PinkyMCP			PinkyPIP			PinkyTip			BackHand1			BackHand2			BackHand3	
		X0	Y0	Z0	X1	Y1	Z1	X2	Y2	Z2	X3	Y3	Z3	X4	Y4	Z4	X5	Y5	Z5	X6	Y6	Z6	X7	Y7	Z7	X8	Y8	Z8	X9	Y9	Z9	X10	Y10	Z10	X11	Y11	Z11	X12	Y12	Z12	X13	Y13	Z13	X14	Y14	Z14	X15	Y15	Z15	X16	Y16	Z16	X17	Y17	Z17	X18	Y18	Z18	
78	0.65	-144.122	-41.3784	16.4644	-132.981	-40.5802	-16.1096	-137.264	-41.5536	-45.0455	-159.54	-42.8722	-59.16	-147.024	-17.2922	-58.3716	-142.555	-42.4316	-76.9946	-148.877	-69.4556	-59.9811	-169.175	-6.88783	-63.5627	-164.614	-35.0358	-87.7013	-167.025	-65.406	-66.8608	-187.42	-1.38922	-54.6825	-189.02	-2.85046	-87.4655	-186.083	-19.999	-109.002	-209.214	-9.80929	-39.9619	-212.907	2.9095	-66.0492	-213.224	3.82721	-89.2528	-194.2	-7.66571	-2.17127	-201.671	-13.4097	22.1275	-165.034	-11.2637	12.8731	
79	0.658333	-145.885	-40.7789	14.4829	-131.67	-41.7712	-15.1782	-134.71	-41.6649	-47.4287	-158.772	-42.9389	-62.5438	-148.253	-16.7304	-56.6256	-145.98	-46.5803	-75.8777	-147.748	-70.3287	-58.9225	-168.035	-8.61275	-65.5746	-162.752	-32.2962	-86.9043	-169.497	-64.8788	-66.8066	-185.449	-0.149161	-59.5989	-188.02	-3.86249	-86.8055	-183.693	-20.1029	-109.844	-209.138	-8.04515	-41.1773	-214.838	1.80766	-62.2104	-213.919	2.93272	-87.5955	-196.337	-7.60614	-2.62579	-200.008	-10.7892	22.3205	-165.506	-8.95192	12.7582	
80	0.666667	-147.708	-41.0143	14.2333	-129.431	-43.4738	-13.3541	-137.9	-39.7885	-44.8723	-158.28	-43.2348	-59.6734	-147.151	-17.9399	-60.5456	-146.607	-47.5087	-75.7948	-147.607	-70.923	-53.6246	-167.193	-9.38293	-65.8858	-165.362	-35.9976	-87.256	-168.191	-65.2246	-64.2492	-184.582	-2.14187	-56.6955	-183.673	-3.11431	-84.4143	-181.251	-22.2408	-111.733	-212.133	-5.68535	-43.457	-210.601	1.13521	-62.6967	-214.562	3.73389	-88.394	-196.71	-3.10259	-7.2784	-198.47	-12.853	22.8914	-165.292	-10.3533	13.5565	
81	0.675	-143.558	-42.004	16.2111	-130.156	-41.9535	-14.5103	-135.23	-39.3311	-45.5553	-157.075	-42.8647	-60.5362	-146.349	-18.0891	-57.4122	-147.112	-44.74	-75.8105	-152.75	-69.5484	-52.26	-163.299	-10.0395	-65.7378	-161.232	-36.6122	-86.1215	-172.358	-64.9124	-60.922	-186.841	-2.42297	-57.1384	-187.222	-2.68337	-84.9589	-181.862	-21.6881	-113.276	-206.894	-5.70665	-44.761	-210.453	2.58208	-64.3936	-216.287	3.93637	-90.8713	-197.221	-5.09563	-4.93344	-203.296	-12.8962	21.249	-165.878	-11.1591	12.2764	
82	0.683333	-144.551	-40.4873	15.4158	-130.968	-43.223	-10.9027	-133.427	-40.8856	-45.7396	-154.188	-41.9059	-60.7342	-144.731	-17.3015	-58.3056	-144.282	-45.9286	-74.0064	-154.584	-67.0071	-50.1645	-165.848	-8.09701	-62.8594	-163.884	-38.1822	-84.6054	-172.432	-62.7385	-56.336	-186.812	-1.18813	-58.0837	-188.341	-3.0682	-85.5587	-181.58	-19.2281	-111.336	-209.258	-8.93192	-40.8814	-213.743	2.66953	-63.3587	-216.132	3.63103	-87.9353	-193.501	-3.63068	-6.5163	-200.256	-11.6732	22.929	-167.795	-9.56213	14.7774	
83	0.691667	-147.057	-41.6236	16.1249	-129.057	-47.3567	-13.6229	-128.481	-47.3609	-44.1203	-140.854	-49.9638	-68.0736	-145.428	-16.6708	-56.2145	-146.986	-47.397	-69.5472	-155.077	-61.9315	-41.1397	-168.945	-7.03605	-67.1849	-167.818	-35.0954	-83.7818	-173.065	-59.3847	-56.4763	-188.334	-0.810672	-56.2319	-188.706	-2.13058	-84.893	-186.468	-18.536	-112.069	-212.763	-8.1158	-41.1128	-217.21	1.71788	-62.467	-213.575	5.45336	-88.602	-198.737	-4.73489	-6.11853	-205.315	-13.2743	22.8178	-167.75	-8.23723	13.219	
84	0.7	-144.396	-38.5177	12.4568	-129.68	-46.4901	-16.2825	-123.236	-49.5005	-46.3086	-136.338	-52.9014	-68.9656	-147.053	-15.2191	-56.1188	-150.037	-49.0413	-65.563	-153.657	-58.3856	-36.8771	-166.201	-7.4309	-66.268	-167.524	-33.0399	-84.1553	-170.58	-59.3778	-52.864	-190.892	0.491728	-57.5131	-187.369	-2.46974	-87.8053	-184.951	-17.8933	-112.348	-209.888	-5.2916	-41.4668	-217.05	2.72099	-62.577	-213.449	7.6501	-86.2409	-200.553	-2.2953	-5.25712	-204.096	-14.239	25.3361	-167.314	-7.32139	13.6969	
85	0.708333	-144.901	-40.5853	13.753	-133.401	-46.0078	-16.8463	-130.046	-49.4568	-45.4634	-140.226	-52.0229	-70.0843	-150.651	-16.6287	-58.1028	-150.894	-45.3678	-67.5935	-156.638	-55.119	-35.2896	-168.153	-6.04175	-63.8989	-166.765	-36.3818	-81.5846	-171.704	-57.5535	-52.0271	-193.366	1.44421	-57.2823	-187.358	-0.707987	-85.4826	-189.17	-17.7468	-112.217	-214.784	-2.935	-41.4861	-215.873	4.12582	-60.7157	-217.515	10.0217	-88.8971	-201.344	-4.68983	-2.69619	-202.432	-12.0512	22.9863	-167.612	-9.27737	16.368	
86	0.716667	-147.555	-40.5929	13.7717	-132.826	-47.5746	-17.4578	-128.218	-52.3175	-45.6841	-146.38	-52.5612	-72.3321	-153.427	-16.0401	-56.8892	-150.043	-48.6878	-66.1346	-157.213	-52.664	-31.8767	-173.85	-6.90901	-63.1525	-169.603	-34.1611	-81.5821	-176.779	-57.8579	-46.308	-191.838	-0.0614595	-56.7017	-191.599	-2.77969	-87.8104	-191.243	-15.5971	-109.331	-212.131	-4.76914	-39.2248	-213.424	5.91026	-62.3385	-219.621	10.2898	-84.9075	-201.708	-6.35357	-1.22007	-201.983	-10.7318	23.4876	-167.053	-7.67843	15.3266	
87	0.725	-146.303	-41.9388	12.2674	-132.153	-49.9183	-19.415	-135.158	-52.1943	-48.132	-148	-56.4631	-72.1407	-154.674	-18.289	-60.639	-154.922	-49.2337	-67.4818	-158.591	-52.8239	-32.6878	-171.86	-9.85677	-66.5667	-170.137	-39.3691	-81.351	-175.339	-58.5425	-48.4861	-196.604	-0.770799	-57.146	-192.686	-3.25	-85.3496	-192.618	-19.0149	-111.319	-213.767	-6.44811	-38.9556	-219.241	5.32937	-62.2535	-222.052	9.07708	-84.1548	-202.255	-4.36966	-1.87342	-204.402	-13.3016	27.147	-168.565	-8.28175	13.9496	
88	0.733333	-146.262	-41.4483	8.95202	-135.293	-51.0238	-19.62	-134.173	-55.8936	-53.6477	-156.825	-58.5479	-71.1965	-157.656	-20.3327	-59.6056	-156.42	-54.7816	-65.1057	-162.162	-55.4208	-34.5571	-178.131	-14.5079	-69.8894	-176.954	-45.5711	-79.8203	-176.889	-61.6607	-47.1312	-199.883	-5.19192	-56.8821	-196.53	-7.7629	-84.8728	-198.545	-22.9185	-110.013	-215.216	-8.06805	-39.1861	-219.55	1.03873	-59.6088	-226.824	6.21455	-82.2648	-200.158	-5.48277	-1.38361	-204.566	-11.6394	24.8933	-167.316	-8.60271	7.93028	
89	0.741667	-147.693	-42.3414	7.74435	-136.919	-53.0025	-20.5268	-139.665	-59.8101	-51.4159	-155.052	-65.8403	-68.8964	-159.589	-26.3249	-61.8607	-159.86	-59.0962	-64.423	-159.738	-56.7285	-30.7324	-179.812	-19.6795	-71.0111	-176.824	-51.5502	-79.5205	-180.649	-65.251	-43.9864	-198.729	-8.7514	-59.9261	-201.699	-13.026	-87.469	-200.469	-29.6355	-110.578	-220.138	-12.8374	-38.6228	-222.419	-3.51481	-62.0043	-225.045	1.51022	-86.4376	-203.511	-7.36883	-4.05839	-205.459	-11.2769	24.4324	-167.452	-8.38826	6.6337	
90	0.75	-145.014	-42.5847	10.3721	-138.723	-54.8703	-19.7083	-137.955	-65.5519	-52.5844	-159.932	-69.5661	-68.0284	-162.289	-29.1618	-62.0955	-161.505	-62.5781	-66.7694	-163.414	-58.9193	-30.6256	-180.808	-23.2376	-67.1659	-180.025	-54.0803	-80.5362	-181.463	-68.3599	-41.0834	-199.855	-13.8968	-58.3732	-203.133	-19.7915	-88.4929	-206.419	-39.494	-114.148	-222.401	-14.5746	-42.9495	-222.975	-9.1019	-61.3591	-227.896	-5.66519	-83.8719	-199.262	-9.59554	-5.73855	-205.877	-12.1358	20.6481	-166.496	-8.07344	6.71368	
91	0.758333	-144.524	-39.5036	10.0782	-133.701	-55.0607	-18.3376	-135.452	-67.4072	-46.8766	-155.286	-74.4976	-63.1788	-159.379	-36.734	-65.091	-160.943	-66.5079	-63.2487	-161.84	-62.2238	-29.9532	-179.572	-27.4716	-67.6337	-177.906	-63.3134	-76.5189	-179.867	-72.6312	-39.1981	-202.382	-18.9549	-65.1584	-206.916	-27.7488	-87.6242	-208.341	-46.7938	-110.19	-220.83	-22.9658	-40.0761	-228.37	-16.8374	-63.8454	-234.767	-13.1139	-87.549	-201.45	-9.70121	-8.51664	-204.747	-10.1085	18.6253	-170.373	-9.24037	2.59594	
92	0.766667	-145.368	-35.7333	11.5821	-135.02	-51.0977	-13.9365	-133.338	-64.729	-45.648	-153.376	-74.6176	-59.4627	-160.852	-36.4428	-61.4392	-156.759	-70.0153	-59.6858	-160.505	-65.3173	-29.2644	-183.627	-33.2854	-69.5667	-177.911	-66.1349	-75.596	-174.105	-75.6856	-36.0177	-205.31	-25.9408	-64.1144	-205.968	-36.8582	-90.1171	-203.256	-53.192	-109.524	-223.607	-27.8831	-43.0957	-228.348	-25.3227	-65.0247	-233.152	-24.9831	-90.6613	-207.034	-13.495	-9.77111	-205.794	-11.478	20.9395	-176.162	-8.90132	4.77071	
93	0.775	-147.208	-29.4694	12.0291	-131.725	-45.1818	-15.3177	-129.392	-60.8093	-37.964	-141.054	-76.7505	-57.0813	-155.678	-35.9464	-60.9276	-148.402	-69.3375	-57.8791	-153.429	-62.2296	-22.9818	-177.769	-39.9834	-71.9993	-169.61	-69.928	-74.6056	-169.907	-78.6132	-35.5638	-203.987	-34.7015	-67.3363	-202.008	-45.3611	-87.8431	-194.839	-65.2465	-110.216	-219.482	-35.5262	-45.4577	-226.082	-36.6974	-68.1662	-231.739	-41.5141	-92.7635	-205.263	-14.1539	-12.845	-206.938	-13.1983	15.8125	-177.334	-5.07905	1.41405	
94	0.783333	-150.981	-22.5249	12.2382	-126.042	-38.3186	-11.2146	-121.863	-57.0131	-38.2995	-134.619	-73.7617	-49.9569	-151.162	-40.2645	-61.152	-143.665	-69.2123	-53.3106	-148.006	-61.0375	-22.0566	-172.997	-44.0494	-71.5299	-158.794	-74.2775	-69.8326	-161.271	-79.8	-29.7679	-199.244	-42.9759	-66.4018	-193.98	-55.1136	-86.9243	-188.08	-79.018	-107.597	-216.791	-46.5374	-47.2138	-225.874	-53.541	-65.3138	-228.876	-58.6209	-91.3791	-205.946	-20.6417	-13.9907	-212.716	-14.7626	12.9598	-182.986	-5.94752	-1.95602	
95	0.791667	-152.77	-17.0643	10.9033	-126.482	-30.8839	-7.35585	-120.747	-50.4232	-33.5622	-124.88	-72.5624	-45.1861	-149.047	-41.6247	-61.1399	-136.808	-67.4865	-47.4779	-148.054	-55.7581	-17.1564	-172.699	-50.0467	-70.2629	-152.746	-74.0835	-69.5697	-152.971	-79.1839	-27.7785	-196.119	-53.0582	-65.6225	-189.01	-65.8812	-83.2895	-177.443	-86.9496	-99.1426	-215.934	-58.7605	-43.8003	-218.571	-68.5202	-70.1011	-217.672	-75.0334	-90.0801	-210.965	-26.3607	-19.4225	-213.975	-20.3569	11.2136	-183.559	-2.96006	-5.85482	
96	0.8	-154.802	-12.3824	8.95132	-130.008	-25.3497	-9.38191	-114.013	-46.0796	-32.0463	-123.786	-68.7589	-40.9739	-147.861	-38.494	-58.2562	-127.185	-60.4484	-43.6033	-143.921	-50.5019	-13.8307	-169.578	-51.3143	-65.4259	-146.45	-76.7685	-62.5125	-143.978	-76.7656	-25.0465	-188.922	-56.4353	-64.806	-178.796	-73.2488	-83.5128	-164.767	-94.2455	-94.1279	-209.098	-65.5438	-47.6743	-209.099	-77.7761	-67.4036	-210.045	-90.7974	-85.1538	-211.472	-32.5468	-19.8066	-220.39	-24.652	6.39404	-187.278	-4.80378	-5.01825	
97	0.808333	-159.505	-8.59916	8.88281	-130.54	-18.3922	-7.22251	-116.972	-37.9458	-25.2784	-120.632	-65.4032	-38.1921	-147.422	-33.6573	-57.448	-123.745	-54.6983	-39.3537	-141.621	-42.5111	-12.3028	-165.941	-54.3497	-64.0507	-137.289	-73.5732	-56.7291	-137.373	-69.0181	-18.7646	-184.516	-61.2229	-63.0846	-173.24	-79.4647	-79.1912	-154.396	-98.0212	-89.555	-203.635	-71.5142	-45.8274	-200.608	-84.0842	-66.4599	-198.835	-99.0199	-84.2077	-209.972	-33.6752	-21.3701	-221.16	-29.4444	9.56889	-193.171	-8.57505	-10.5655	
98	0.816667	-162.155	-1.23763	7.71328	-129.832	-10.0151	-6.17418	-113.655	-32.2719	-27.0382	-119.273	-57.3496	-32.676	-147.758	-34.0429	-56.568	-122.546	-48.556	-37.7782	-139.451	-38.345	-12.1875	-160.493	-53.4405	-63.2155	-132.461	-67.3986	-56.8654	-135.464	-62.5758	-14.221	-179.926	-65.4092	-61.5789	-166.423	-80.8214	-75.4489	-144.73	-95.1794	-85.1308	-196.593	-75.673	-44.4082	-191.141	-88.7293	-63.768	-187.063	-105.219	-82.0882	-209.566	-39.6346	-22.3761	-222.527	-33.8016	7.69873	-195.885	-7.02079	-8.36653	
99	0.825	-167.255	-1.09456	2.79363	-134.575	-4.95208	-9.66953	-113.577	-21.6733	-23.4534	-113.552	-49.5277	-29.1313	-144.297	-32.4859	-56.7714	-119.834	-41.8452	-39.6674	-140.227	-31.8169	-11.9545	-157.471	-51.709	-62.0817	-125.729	-61.7153	-50.8441	-132.443	-53.5299	-11.4917	-173.526	-67.5707	-61.4135	-155.517	-77.5496	-75.1049	-131.617	-90.2071	-82.5698	-189.591	-75.3319	-41.5046	-182.871	-90.4727	-59.494	-172.869	-104.566	-75.2844	-210.798	-43.6411	-22.0319	-221.262	-36.2315	3.08537	-203.058	-9.69301	-11.6907	
100	0.833333	-175.403	3.61053	5.20031	-138.928	4.77729	-10.7307	-117.204	-11.0423	-22.6648	-110.551	-39.0348	-27.9688	-145.745	-26.1055	-56.648	-119.755	-32.4567	-39.687	-142.584	-24.9914	-11.9445	-149.497	-50.7265	-62.4456	-121.43	-54.4439	-49.6716	-129.764	-42.238	-10.5467	-169.196	-64.5343	-58.1816	-147.843	-74.0042	-72.2294	-119.753	-86.4004	-78.4141	-182.201	-81.3429	-40.213	-171.3	-90.2404	-57.3927	-158.806	-104.462	-72.09	-207.646	-48.0075	-23.0215	-221.427	-38.2762	5.1499	-203.246	-10.9851	-14.8982	
